<?xml version="1.0" encoding="UTF-8"?>
<svg xmlns="http://www.w3.org/2000/svg" viewBox="0 0 1932.31 2166.77">
  <defs>
    <style>
      .cls-1 {
        fill: #ff2e2e;
      }

      .cls-2 {
        fill: #f2f2eb;
      }

      .cls-3 {
        fill: #7a7a7a;
        font-family: Bahnschrift, Bahnschrift;
        font-size: 16.71px;
        font-variation-settings: 'wght' 400, 'wdth' 100;
      }

      .cls-4 {
        letter-spacing: -.01em;
      }

      .cls-4, .cls-5, .cls-6, .cls-7, .cls-8, .cls-9 {
        font-family: Radlush-Black, Radlush;
        font-weight: 800;
      }

      .cls-4, .cls-6 {
        font-size: 46.56px;
      }

      .cls-10, .cls-11, .cls-12, .cls-13, .cls-14, .cls-15, .cls-16, .cls-17, .cls-18, .cls-19, .cls-20 {
        font-family: Bahnschrift-SemiLightCondensed, Bahnschrift;
        font-variation-settings: 'wght' 350, 'wdth' 75;
        font-weight: 300;
      }

      .cls-10, .cls-11, .cls-12, .cls-7, .cls-15, .cls-20 {
        font-size: 35.34px;
      }

      .cls-11 {
        letter-spacing: 0em;
      }

      .cls-21 {
        fill: #c9c9c9;
      }

      .cls-22, .cls-23, .cls-24, .cls-25 {
        fill: #fff;
      }

      .cls-5 {
        letter-spacing: -.02em;
      }

      .cls-5, .cls-9 {
        font-size: 41.52px;
      }

      .cls-23 {
        font-size: 24px;
      }

      .cls-23, .cls-24, .cls-26, .cls-27, .cls-25 {
        font-family: CascadiaCodeRoman-Bold, 'Cascadia Code';
        font-variation-settings: 'wght' 700;
        font-weight: 700;
      }

      .cls-28 {
        fill: #050505;
      }

      .cls-12 {
        letter-spacing: .02em;
      }

      .cls-13 {
        letter-spacing: .02em;
      }

      .cls-13, .cls-14, .cls-16, .cls-17, .cls-18, .cls-19, .cls-8 {
        font-size: 39.63px;
      }

      .cls-24 {
        font-size: 22.8px;
      }

      .cls-26, .cls-27 {
        font-size: 22px;
      }

      .cls-26, .cls-29 {
        fill: #7f7f7f;
      }

      .cls-15 {
        letter-spacing: -.02em;
      }

      .cls-30 {
        letter-spacing: -.02em;
      }

      .cls-16 {
        letter-spacing: 0em;
      }

      .cls-17 {
        letter-spacing: 0em;
      }

      .cls-25 {
        font-size: 20.33px;
      }

      .cls-18 {
        letter-spacing: 0em;
      }

      .cls-31 {
        fill: #4d96ff;
      }

      .cls-32 {
        letter-spacing: -.01em;
      }

      .cls-19 {
        letter-spacing: -.02em;
      }

      .cls-33 {
        fill: #ff6100;
      }

      .cls-34 {
        fill: #02a43d;
      }

      .cls-35 {
        fill: #040000;
      }

      .cls-36 {
        fill: #1c5125;
      }

      .cls-37 {
        letter-spacing: 0em;
      }

      .cls-20 {
        letter-spacing: 0em;
      }

      .cls-38 {
        letter-spacing: -.05em;
      }

      .cls-39 {
        fill: #fffff5;
      }

      .cls-40 {
        letter-spacing: 0em;
      }

      .cls-41 {
        letter-spacing: 0em;
      }
    </style>
  </defs>
  <g id="BACKGROUND">
    <rect class="cls-39" width="1920" height="1080"/>
    <text class="cls-3" transform="translate(1593.29 2162.24)"><tspan class="cls-38" x="0" y="0">T</tspan><tspan class="cls-37" x="7.15" y="0">ech: Diegho N</tspan><tspan class="cls-30" x="109.81" y="0">e</tspan><tspan class="cls-41" x="118.44" y="0">v</tspan><tspan class="cls-37" x="126.64" y="0">es / Design: Felipe C</tspan><tspan class="cls-32" x="279.19" y="0">a</tspan><tspan x="287.84" y="0">valie</tspan><tspan class="cls-40" x="323.09" y="0">r</tspan><tspan x="330.06" y="0">e</tspan></text>
    <g>
      <text class="cls-24" transform="translate(467.18 56.46)"><tspan x="0" y="0">generate for free</tspan></text>
      <text class="cls-22" transform="translate(181.67 63.83)"><tspan class="cls-4" x="0" y="0">Q</tspan><tspan class="cls-6" x="34.87" y="0">R</tspan><tspan class="cls-8" x="66.95" y="0"> </tspan><tspan class="cls-19" x="76.06" y="0">C</tspan><tspan class="cls-16" x="91.85" y="0">OD</tspan><tspan class="cls-17" x="126.02" y="0">E T</tspan><tspan class="cls-16" x="162.63" y="0">U</tspan><tspan class="cls-14" x="178.54" y="0">R</tspan><tspan class="cls-13" x="196.44" y="0">T</tspan><tspan class="cls-18" x="210.87" y="0">LE</tspan></text>
      <rect class="cls-22" x="442.16" y="22.72" width="1.12" height="59.19"/>
    </g>
  </g>
  <g id="HEADER">
    <rect class="cls-33" width="1920.48" height="87.43"/>
  </g>
  <g id="HEADER_LOGO">
    <g>
      <text class="cls-25" transform="translate(376.72 60.47)"><tspan x="0" y="0">generate for free</tspan></text>
      <text class="cls-22" transform="translate(122.12 67.04)"><tspan class="cls-5" x="0" y="0">Q</tspan><tspan class="cls-9" x="31.1" y="0">R</tspan><tspan class="cls-7" x="59.7" y="0"> </tspan><tspan class="cls-15" x="67.83" y="0">C</tspan><tspan class="cls-11" x="81.91" y="0">OD</tspan><tspan class="cls-10" x="112.38" y="0">E T</tspan><tspan class="cls-20" x="145.03" y="0">U</tspan><tspan class="cls-10" x="159.21" y="0">R</tspan><tspan class="cls-12" x="175.17" y="0">T</tspan><tspan class="cls-10" x="188.04" y="0">LE</tspan></text>
      <rect class="cls-22" x="354.41" y="30.38" width="1" height="52.78"/>
    </g>
  </g>
  <g id="BLOCO_FRONTAL">
    <polygon class="cls-2" points="122.12 148.67 122.12 1011.33 1063.44 1011.33 1797.88 1011.33 1797.88 573.37 1797.88 148.67 122.12 148.67"/>
  </g>
  <g id="AJUST_COLOR">
    <g>
      <text class="cls-26" transform="translate(1139.57 570.52)"><tspan x="0" y="0">Ajust Colors</tspan></text>
      <path class="cls-21" d="M1323.46,797.52l-20.48,2.36,5.51,7.43c-10.65,5.14-31.48,14.04-42.96,16.92-13.06,3.28-27.22,5.88-40.65,3.62-11.17-1.88-22.07-7.78-27.61-18.02-5.14-9.5-3.38-20.33,2.25-29.15,5.91-9.27,14.79-16.45,23.44-23.03,10-7.6,19.97-15.1,29.21-23.65,9.68-8.95,18.71-18.61,26.94-28.9,6.83-8.53,8.79-20.25,3.75-30.19-2.42-4.78-6.44-8.93-11.37-11.1-3.67-1.62-7.55-1.98-11.51-1.88-5.93.15-11.85.81-17.74,1.48-18.09,2.04-36.12,4.58-54.22,6.54-21.49,2.33-43.09,4.09-64.72,4.08-10.35,0-20.72-.43-31.01-1.6-10.74-1.23-22.17-2.89-31.6-8.5-8.89-5.29-14.38-14.23-15.64-24.44-1.22-9.89,1.09-20.14,5.67-28.92,10.86-20.8,34.34-30.43,55.71-36.57,5.64-1.62,11.34-3.06,17.04-4.48,1.7-.42.98-3.05-.72-2.62-23.05,5.74-47.88,12.14-65.14,29.57-13.62,13.76-20.44,36.98-11.89,55.11,4.89,10.37,14.7,16.56,25.41,19.71,9.95,2.93,20.57,4.03,30.89,4.76,21.79,1.54,43.73.48,65.47-1.37,20.18-1.71,40.26-4.29,60.35-6.8,7.52-.94,15.04-1.89,22.59-2.59,6.18-.57,13.28-1.62,19.2.68,10.83,4.21,15.45,17.26,12.42,27.91-1.69,5.96-5.74,10.49-9.67,15.11-4.41,5.19-9.03,10.22-13.83,15.06-9.52,9.6-19.76,18.47-30.62,26.51-8.94,6.62-18.06,13.29-25.42,21.69-6.69,7.64-11.92,17.16-10.99,27.62.97,10.94,8.21,20.03,17.55,25.37,11.47,6.55,25.26,6.93,38.05,5.27,13.67-1.76,36.83-10.15,49.67-15.15,4.53-1.76,8.98-3.71,13.35-5.84l5.12,6.91,8.2-18.91Z"/>
      <g>
        <path class="cls-31" d="M1141.17,543.23c-.72-4.06-2.05-7.98-3.9-11.65-.47-.93-1.86-.11-1.39.81,1.79,3.56,3.04,7.35,3.74,11.27.18,1.02,1.73.59,1.55-.43h0Z"/>
        <path class="cls-34" d="M1130.86,543.16c-3.24-3.38-6.72-6.51-10.41-9.39-.35-.27-.8-.33-1.14,0-.28.28-.34.87,0,1.14,3.69,2.88,7.17,6.02,10.41,9.39.72.75,1.86-.39,1.14-1.14h0Z"/>
        <path class="cls-33" d="M1131.7,551.13c-4.66-2.5-10.03-1.43-15.03-2.46-1.01-.21-1.44,1.34-.43,1.55,4.8.99,10.19-.1,14.65,2.3.91.49,1.73-.9.81-1.39h0Z"/>
      </g>
    </g>
  </g>
  <g id="MOLDURA_QR_CODE">
    <g>
      <rect class="cls-33" x="1377.55" y="558.06" width="306.06" height="306.06"/>
      <rect class="cls-22" x="1389.09" y="569.6" width="282.98" height="282.98"/>
    </g>
  </g>
  <g id="TARTARUGA">
    <g>
      <path class="cls-35" d="M1568.82,356.54l-.14-53.13c.08-.92.14-1.85.14-2.78,0-.99-.06-1.97-.16-2.95v-.13s-.01,0-.01,0c-1.97-19.42-22.36-34.83-47.67-35.76v-.05h-32.08l.06.03c-27.09.59-48.82,17.76-48.82,38.86,0,15.79,12.16,29.37,29.63,35.46h0s.04.01.04.01c4.85,1.69,10.1,2.81,15.62,3.22l83.39,17.21Z"/>
      <g>
        <path class="cls-22" d="M1632.01,239.11c-.08-8.44-5.75-14.44-14.14-14.36-8.4.08-13.95,6.18-13.88,14.62.08,8.48,5.74,14.12,14.14,14.04.36,0,.72,0,1.03-.05l1.78,3.01,9.75-.09-3.48-5.9c3.08-2.54,4.84-6.45,4.79-11.27ZM1618.05,244.09c-2.55.02-4.28-1.95-4.3-4.9-.03-2.91,1.67-5.11,4.21-5.13,2.55-.02,4.28,2.15,4.31,5.06.03,2.94-1.67,4.95-4.21,4.97Z"/>
        <path class="cls-22" d="M1686.48,241.72l-14.55-.76-1.46,27.82,9.34.49.46-8.74.44.02,4.11,8.98,10.65.56-4.89-10.1c3.02-1.28,4.99-4.04,5.21-8.22.33-6.2-3.59-9.75-9.32-10.05ZM1683.05,253.9l-2.42-.13.23-4.37,2.42.13c2.27.12,3.22.89,3.14,2.36-.07,1.31-1.11,2.13-3.37,2.02Z"/>
        <path class="cls-28" d="M1617.95,234.06c-2.55.02-4.24,2.23-4.21,5.13.03,2.95,1.76,4.92,4.3,4.9,2.55-.02,4.24-2.03,4.21-4.97-.03-2.91-1.76-5.08-4.31-5.06Z"/>
        <path class="cls-28" d="M1651.66,272.61c-1.62-17.43-3.27-34.85-4.93-52.28-.79-8.32-2.24-10.01-10.36-12.35-3.48-1.01-7.03-1.33-10.63-1.06-1.47.11-2.93.39-4.4.56-14.31,1.72-27.23-1.32-38.17-11.14-1.11-1-2.12-2.18-3.84-1.25-1.57.84-1.18,2.25-1.07,3.59.04.49.06.98.1,1.48,4.19,44.18,8.41,88.37,12.5,132.56.29,3.17,1.13,5.25,4.15,5.36,5.91,1.66,6.53,1.15,6-4.48-.63-6.75-1.26-13.5-1.89-20.25-1.14-12.28-2.27-24.56-3.44-36.83-.25-2.59-.08-4.79,3.39-3.79,10.2,2.93,20.48,2.64,30.84,1.19,5.74-.81,11.31-.18,16.63,2.29,4.48,2.07,5.56,1.31,5.1-3.58ZM1630.7,256.27l-9.75.09-1.78-3.01c-.32.04-.68.05-1.03.05-8.4.08-14.06-5.56-14.14-14.04-.08-8.44,5.48-14.54,13.88-14.62,8.4-.08,14.07,5.92,14.14,14.36.04,4.82-1.71,8.73-4.79,11.27l3.48,5.9Z"/>
        <path class="cls-28" d="M1733.04,247.52c-9.62-9.06-20.76-16.18-33.64-21.08-10.23-3.77-20.6-5.92-31.19-6-3.58-.03-7.17-.34-10.78-1.08-5.81-1.18-6.1-.99-5.66,4.16,1.37,16.13,2.79,32.27,4.11,48.4.47,5.73-1.08,7.76-6.66,9.09-1.71.41-3.54.56-3.27,2.6.31,2.36,2.56,2.47,4.45,2.82,8.43,1.56,16.42.9,24.14-.8,6.78-1.5,13.76-1.82,21.09-.65,11.65,1.87,22.33,6.35,32.59,12.03,1.68.93,3.35,2.43,5.3,1.15,1.97-1.28.59-2.97-.2-4.49-6.05-11.7-14.61-22-26.35-30.54-3.82-2.78-3.82-3.74-.18-5.68,7.04-3.74,14.83-5.84,23.9-4.96,1.67.16,3.42.57,4.27-.91.97-1.69-.65-2.87-1.92-4.07ZM1695.8,251.78c-.22,4.17-2.2,6.94-5.21,8.22l4.89,10.1-10.65-.56-4.11-8.98-.44-.02-.46,8.74-9.34-.49,1.46-27.82,14.55.76c5.72.3,9.64,3.85,9.32,10.05Z"/>
        <path class="cls-28" d="M1683.28,249.53l-2.42-.13-.23,4.37,2.42.13c2.27.12,3.31-.7,3.37-2.02.08-1.47-.88-2.24-3.14-2.36Z"/>
      </g>
      <path class="cls-35" d="M1613.5,480.54h-9.79l-17.32-27.82v-1.19h-95.16l-18.06,29.01h-9.79c-4.57,0-8.27,3.7-8.27,8.27v12.47c0,1.99.71,3.82,1.88,5.25,1.52,1.84,3.82,3.02,6.39,3.02h74.45v-36.27c0-.68.56-1.22,1.23-1.21v-3.24c.66.01,4.45-.02,4.45.65l-.02,40.07h70c2.57,0,4.87-1.18,6.39-3.02,1.17-1.43,1.88-3.26,1.88-5.25v-12.47c0-4.57-3.7-8.27-8.27-8.27Z"/>
      <g>
        <polygon class="cls-34" points="1574.38 307.94 1503.72 307.94 1453.75 357.91 1453.75 428.57 1503.72 478.54 1574.38 478.54 1624.35 428.57 1624.35 357.91 1574.38 307.94"/>
        <path d="M1575.22,480.57h-72.34l-51.15-51.15v-72.34l51.15-51.15h72.34l51.15,51.15v72.34l-51.15,51.15ZM1506.35,472.19h65.41l46.25-46.25v-65.41l-46.25-46.25h-65.41l-46.25,46.25v65.41l46.25,46.25Z"/>
      </g>
      <path class="cls-22" d="M1482.8,287.91c-1.29-1.31-2.05-2.96-2.05-4.74s.77-3.43,2.05-4.74c1.39-1.42,3.6-1.98,5.65-1.7-1.35-.85-2.99-1.34-4.75-1.34-4.67,0-8.46,3.49-8.46,7.78s3.79,7.78,8.46,7.78c1.76,0,3.39-.5,4.75-1.34-2.05.28-4.26-.28-5.65-1.7Z"/>
      <polygon class="cls-36" points="1558.05 371.31 1520.02 371.31 1501.01 393.27 1520.02 415.22 1558.05 415.22 1577.06 393.27 1558.05 371.31"/>
      <polygon class="cls-36" points="1564.05 322.07 1514.02 322.07 1495.01 338.03 1520.02 365.98 1558.05 365.98 1583.06 338.03 1564.05 322.07"/>
      <polygon class="cls-36" points="1557.49 421.22 1519.46 421.22 1494.45 449.18 1513.46 465.13 1563.49 465.13 1582.5 449.18 1557.49 421.22"/>
      <g>
        <polygon class="cls-36" points="1468.04 397.87 1468.04 418.28 1484 437.29 1508.86 415.05 1493.98 397.87 1468.04 397.87"/>
        <polygon class="cls-36" points="1508.86 371.49 1484 349.24 1468.04 368.25 1468.04 387.54 1494.96 387.54 1508.86 371.49"/>
      </g>
      <g>
        <polygon class="cls-36" points="1609.7 397.87 1609.7 418.28 1593.74 437.29 1568.88 415.05 1583.76 397.87 1609.7 397.87"/>
        <polygon class="cls-36" points="1568.88 371.49 1593.74 349.24 1609.7 368.25 1609.7 387.54 1582.78 387.54 1568.88 371.49"/>
      </g>
      <g>
        <path class="cls-33" d="M1680.72,342.49v-4.3h4.3v4.3c0,1.19-.42,2.2-1.26,3.04s-1.85,1.26-3.04,1.26h-4.3c-1.19,0-2.2-.42-3.04-1.26-.84-.84-1.26-1.85-1.26-3.04v-21.49c0-1.19.42-2.2,1.26-3.04.84-.84,1.85-1.26,3.04-1.26h4.3c1.19,0,2.2.42,3.04,1.26s1.26,1.85,1.26,3.04v4.3h-4.3v-4.3h-4.3v21.49h4.3Z"/>
        <path class="cls-33" d="M1700.06,342.49c0,1.19-.42,2.2-1.26,3.04s-1.85,1.26-3.04,1.26h-4.3c-1.19,0-2.2-.42-3.04-1.26-.84-.84-1.26-1.85-1.26-3.04v-21.49c0-1.19.42-2.2,1.26-3.04.84-.84,1.85-1.26,3.04-1.26h4.3c1.19,0,2.2.42,3.04,1.26s1.26,1.85,1.26,3.04v21.49ZM1695.76,321h-4.3v21.49h4.3v-21.49Z"/>
        <path class="cls-33" d="M1715.1,342.49c0,1.19-.63,2.2-1.88,3.04-1.25.84-2.78,1.26-4.57,1.26h-6.45v-30.09h6.45c1.79,0,3.31.42,4.57,1.26,1.25.84,1.88,1.85,1.88,3.04v21.49ZM1710.8,321h-4.3v21.49h4.3v-21.49Z"/>
        <path class="cls-33" d="M1730.14,316.7v4.3h-8.6v8.6h6.45v4.3h-6.45v8.6h8.6v4.3h-12.89v-30.09h12.89Z"/>
        <path class="cls-33" d="M1654.93,357.96v4.3h-4.3v25.79h-4.3v-25.79h-4.3v-4.3h12.89Z"/>
        <path class="cls-33" d="M1665.67,357.96h4.3v25.79c0,1.19-.42,2.2-1.26,3.04s-1.85,1.26-3.04,1.26h-4.3c-1.19,0-2.2-.42-3.04-1.26-.84-.84-1.26-1.85-1.26-3.04v-25.79h4.3v25.79h4.3v-25.79Z"/>
        <path class="cls-33" d="M1682.8,374.65l2.22,13.4h-4.3l-2.15-12.89h-2.15v12.89h-4.3v-30.09h8.6c1.19,0,2.2.42,3.04,1.26s1.26,1.85,1.26,3.04v8.6c0,1.19-.41,2.19-1.24,3.02-.31.31-.64.57-.97.77ZM1676.42,362.26v8.6h4.3v-8.6h-4.3Z"/>
        <path class="cls-33" d="M1700.06,357.96v4.3h-4.3v25.79h-4.3v-25.79h-4.3v-4.3h12.89Z"/>
        <path class="cls-33" d="M1715.1,383.75v4.3h-12.89v-30.09h4.3v25.79h8.6Z"/>
        <path class="cls-33" d="M1730.14,357.96v4.3h-8.6v8.6h6.45v4.3h-6.45v8.6h8.6v4.3h-12.89v-30.09h12.89Z"/>
      </g>
      <ellipse class="cls-22" cx="1450.81" cy="301.09" rx="4.31" ry="3.13"/>
      <g>
        <path class="cls-33" d="M1567.94,271.78c5.87-17.21-4.76-35.57-24.21-41.38-19.85-5.93-41.36,3.45-48.04,20.96-.35.91-.64,1.82-.89,2.74l-41.71-7.09c-1.95-.58-4.06.34-4.72,2.06-.66,1.72.39,3.59,2.34,4.17l111.04,32.2,3.64-7.78-5.97-2.13c1.38-3.03,5.08-4.6,8.53-3.75Z"/>
        <path d="M1563.26,287.12l-113.22-32.17c-3.06-.91-4.72-3.82-3.7-6.49.5-1.31,1.57-2.37,3-2.96,1.33-.56,2.84-.65,4.25-.26l39.64,6.74c.14-.41.28-.82.44-1.22,3.49-9.14,10.86-16.44,20.75-20.57,9.43-3.93,20.08-4.47,29.98-1.51,9.93,2.97,18.04,9.13,22.84,17.35,4.77,8.18,5.75,17.52,2.75,26.29l-.58,1.7-2.01-.5c-1.77-.44-3.61.05-4.86,1.16l5.61,2-4.89,10.43ZM1451.32,251.5l109.17,31.67,2.12-4.53-5.96-2.12.76-1.67c1.49-3.26,5.11-5.25,8.94-5.11,4.52-15.97-5.45-32.28-23.3-37.62-8.82-2.63-18.31-2.15-26.72,1.35-8.88,3.7-15.49,10.26-18.63,18.48-.31.82-.59,1.67-.85,2.59l-.46,1.67-43.84-7.46-.14-.04c-.38-.11-.79-.09-1.16.06-.41.17-.73.48-.88.88-.29.76.13,1.58.94,1.84Z"/>
      </g>
      <g>
        <ellipse class="cls-33" cx="1560.39" cy="222.33" rx="4.67" ry="5.95" transform="translate(632.27 1496.23) rotate(-62.03)"/>
        <path d="M1557.63,227.53c-3.66-1.94-5.39-5.85-3.87-8.72,1.52-2.87,5.74-3.62,9.39-1.68,3.66,1.94,5.39,5.85,3.87,8.72-1.52,2.87-5.74,3.62-9.39,1.68ZM1562,219.29c-2.14-1.13-4.6-.69-5.49.98-.89,1.68.12,3.96,2.26,5.1,2.14,1.13,4.6.69,5.49-.98.89-1.68-.12-3.96-2.26-5.1Z"/>
      </g>
    </g>
  </g>
  <g id="BOTÃO_DOWLOAD">
    <g>
      <rect class="cls-34" x="1369.9" y="893.77" width="321.37" height="45.47" rx="20.67" ry="20.67"/>
      <g>
        <path class="cls-22" d="M1498,908.52h-5.29v15.98h5.27c1.4,0,2.57-.24,3.5-.72.93-.48,1.64-1.15,2.1-2.01s.7-1.86.7-2.99v-4.53c0-1.82-.55-3.23-1.64-4.23-1.1-1-2.65-1.5-4.65-1.5ZM1501.17,918.86c0,.86-.27,1.54-.81,2.02-.54.48-1.31.72-2.3.72h-2.34v-10.18h2.34c.99,0,1.75.24,2.3.71.54.48.81,1.15.81,2.02v4.7Z"/>
        <path class="cls-22" d="M1515.62,909.08c-.88-.49-1.9-.73-3.07-.73s-2.2.24-3.07.73c-.88.49-1.56,1.17-2.04,2.05-.48.88-.73,1.92-.73,3.1v4.53c0,1.18.24,2.21.73,3.1.48.89,1.16,1.57,2.04,2.06.87.49,1.9.73,3.07.73s2.2-.24,3.07-.73c.88-.49,1.56-1.17,2.04-2.06.48-.89.73-1.92.73-3.1v-4.53c0-1.19-.24-2.22-.73-3.1-.48-.88-1.16-1.57-2.04-2.05ZM1515.26,918.85c0,.84-.25,1.52-.74,2.03-.5.51-1.15.77-1.97.77s-1.48-.26-1.97-.77c-.49-.51-.74-1.19-.74-2.03v-4.68c0-.85.25-1.53.74-2.04.5-.51,1.15-.76,1.97-.76s1.48.25,1.97.76c.49.51.74,1.19.74,2.04v4.68Z"/>
        <polygon class="cls-22" points="1533.6 919.17 1530.55 908.52 1528.13 908.52 1525.07 919.17 1523.02 908.52 1519.92 908.52 1523.6 924.49 1526.44 924.49 1529.4 913.33 1532.24 924.49 1535.07 924.49 1538.75 908.52 1535.66 908.52 1533.6 919.17"/>
        <polygon class="cls-22" points="1550.09 920.21 1544.41 908.52 1540.73 908.52 1540.73 924.48 1543.61 924.48 1543.61 912.96 1549.27 924.48 1552.97 924.48 1552.97 908.52 1550.09 908.52 1550.09 920.21"/>
        <polygon class="cls-22" points="1559.5 908.52 1556.49 908.52 1556.49 924.49 1557.83 924.49 1559.5 924.49 1567.19 924.49 1567.19 921.59 1559.5 921.59 1559.5 908.52"/>
        <path class="cls-22" d="M1577.53,909.08c-.88-.49-1.9-.73-3.07-.73s-2.2.24-3.07.73c-.88.49-1.56,1.17-2.04,2.05-.48.88-.73,1.92-.73,3.1v4.53c0,1.18.24,2.21.73,3.1.48.89,1.16,1.57,2.04,2.06.87.49,1.9.73,3.07.73s2.2-.24,3.07-.73c.88-.49,1.56-1.17,2.04-2.06.48-.89.73-1.92.73-3.1v-4.53c0-1.19-.24-2.22-.73-3.1-.48-.88-1.16-1.57-2.04-2.05ZM1577.17,918.85c0,.84-.25,1.52-.74,2.03-.5.51-1.15.77-1.97.77s-1.48-.26-1.97-.77c-.49-.51-.74-1.19-.74-2.03v-4.68c0-.85.25-1.53.74-2.04.5-.51,1.15-.76,1.97-.76s1.48.25,1.97.76c.49.51.74,1.19.74,2.04v4.68Z"/>
        <path class="cls-22" d="M1587.39,908.52l-6.11,15.98h3.24l.9-2.56h5.85l.9,2.56h3.24l-6.11-15.98h-1.91ZM1586.43,919.03l1.91-5.45,1.91,5.45h-3.82Z"/>
        <path class="cls-22" d="M1602.67,908.52h-5.29v15.98h5.27c1.4,0,2.57-.24,3.5-.72.93-.48,1.64-1.15,2.1-2.01s.7-1.86.7-2.99v-4.53c0-1.82-.55-3.23-1.64-4.23-1.1-1-2.65-1.5-4.65-1.5ZM1605.85,918.86c0,.86-.27,1.54-.81,2.02-.54.48-1.31.72-2.3.72h-2.34v-10.18h2.34c.99,0,1.75.24,2.3.71.54.48.81,1.15.81,2.02v4.7Z"/>
        <g>
          <path class="cls-22" d="M1464.88,922.97c.68.68,1.53.67,2.21-.01.59-.59,1.18-1.18,1.77-1.77,1.91-1.92,3.83-3.83,5.75-5.75.44-.44.6-.95.44-1.54-.32-1.18-1.74-1.51-2.64-.61-1.43,1.43-2.86,2.87-4.3,4.3-.08.08-.17.16-.31.29v-4.34c0-2.68,0-5.35,0-8.03,0-.8-.37-1.4-1.1-1.72-1.22-.53-2.53.36-2.53,1.71,0,4,0,8,0,11.99v.39c-.12-.11-.16-.15-.21-.2-1.47-1.47-2.94-2.94-4.41-4.41-.66-.66-1.6-.68-2.24-.05-.61.6-.6,1.57.04,2.21,2.51,2.52,5.02,5.03,7.54,7.54Z"/>
          <path class="cls-22" d="M1479.78,924.46c0-.86-.63-1.47-1.52-1.47-.91,0-1.54.61-1.55,1.48,0,.28.02.57-.02.84-.12.83-.78,1.32-1.74,1.32-5.97,0-11.94,0-17.91,0-.13,0-.26,0-.39-.02-.66-.07-1.19-.5-1.34-1.15-.08-.35-.06-.73-.07-1.1-.02-.73-.59-1.3-1.38-1.38-.77-.08-1.59.41-1.64,1.11-.06,1.02,0,2.05.02,3.08,0,.12.06.25.11.37.43,1.11,1.57,1.83,2.89,1.83,3.58,0,7.15,0,10.73,0,3.52,0,7.04,0,10.57,0,.27,0,.54-.01.81-.06,1.43-.26,2.5-1.45,2.43-2.85-.03-.67,0-1.34,0-2.02Z"/>
        </g>
      </g>
    </g>
  </g>
  <g id="WWW_ICON">
    <g>
      <circle class="cls-22" cx="230.28" cy="253.76" r="35.85"/>
      <g>
        <path class="cls-33" d="M266.09,253.78c0,19.85-15.89,35.77-35.78,35.84-19.8.06-35.9-15.97-35.89-35.74,0-20.13,15.85-35.96,35.97-35.96,19.84,0,35.69,15.92,35.7,35.86ZM261.06,253.75c-.04-17.23-13.87-30.81-31.35-30.79-16.51.02-30.27,14.07-30.25,30.85.03,16.97,13.88,30.72,30.93,30.69,16.89-.02,30.71-13.88,30.67-30.76Z"/>
        <path class="cls-33" d="M230.23,262.19c-6,0-12,.01-18,0-5.15-.01-8.77-3.49-8.78-8.39,0-4.95,3.56-8.49,8.67-8.5,12.06-.03,24.12-.03,36.18,0,5.19.01,8.84,3.6,8.81,8.57-.03,4.81-3.75,8.31-8.88,8.33-6,.01-12,0-18,0ZM230.28,252.45c.53,1.4.86,2.4,1.29,3.35.32.72.2,1.75,1.52,1.78,1.42.02,1.33-1.09,1.64-1.86.7-1.69,1.31-3.42,2.12-5.58.93,2.47,1.63,4.48,2.45,6.44.17.41.79.92,1.17.89.48-.04,1.12-.48,1.34-.92.59-1.17.99-2.44,1.61-4.05.63,1.63,1.08,2.93,1.65,4.17.18.38.69.78,1.09.82.41.04,1.12-.24,1.25-.56.95-2.34,1.79-4.73,2.67-7.11-1.36-.53-1.89,0-2.23,1.08-.39,1.27-.9,2.51-1.53,4.23-.52-1.43-.75-2.41-1.22-3.25-.45-.81-.13-2.51-1.65-2.18-.66.14-1.18,1.31-1.6,2.1-.5.94-.81,1.98-1.31,3.23-.53-1.48-.98-2.62-1.33-3.79-.33-1.11-.77-1.74-2.15-1.71-1.36.04-2.17.3-2.52,1.72-.31,1.23-.86,2.4-1.4,3.84-.61-1.66-1.07-3.1-1.68-4.47-.19-.43-.77-.94-1.17-.95-.4,0-.97.52-1.16.94-.6,1.29-1.05,2.65-1.72,4.41-.61-1.67-1.17-2.94-1.53-4.26-.31-1.12-1.03-1.24-1.98-1.19-.95.06-1.97-.25-2.35,1.15-.37,1.37-.97,2.69-1.59,4.38-.66-1.78-1.1-3.17-1.69-4.49-.19-.43-.75-.95-1.14-.95-.4,0-.98.51-1.17.94-.61,1.34-1.07,2.74-1.59,4.11-1.6-1.5-.6-4.74-4.08-5.3,1.02,2.77,1.84,5.12,2.77,7.43.13.33.8.64,1.2.62.4-.02.97-.38,1.14-.74.61-1.31,1.07-2.68,1.68-4.27.55,1.42.94,2.65,1.5,3.78.26.52.92,1.25,1.3,1.2.55-.08,1.23-.69,1.47-1.24.83-1.92,1.5-3.9,2.34-6.14.87,2.37,1.57,4.41,2.39,6.4.19.46.84.99,1.29,1,.44,0,1.09-.51,1.31-.97.59-1.18.99-2.46,1.6-4.05Z"/>
        <path class="cls-33" d="M224,265.63h12.57c-.85,4.73-1.67,9.33-4.61,13.19-1.2,1.58-2.28,1.5-3.5-.14-2.54-3.41-3.39-7.47-4.23-11.51-.09-.45-.13-.92-.22-1.53Z"/>
        <path class="cls-33" d="M236.57,241.81h-12.88c.96-3.29,1.84-6.41,2.81-9.51.27-.88.75-1.71,1.24-2.5,1.8-2.93,3.28-2.95,5.05,0,2.19,3.66,3.04,7.74,3.78,12Z"/>
        <path class="cls-33" d="M206.97,241.8c3.54-6.69,8.8-10.91,15.71-13.16-1.22,4.36-2.43,8.67-3.69,13.16h-12.02Z"/>
        <path class="cls-33" d="M222.66,278.83c-6.88-2.22-12.13-6.46-15.7-13.14h12.03c1.21,4.35,2.42,8.68,3.67,13.14Z"/>
        <path class="cls-33" d="M253.68,265.56c-3.75,6.79-8.95,11.13-15.71,13.22,1.03-4.06,2.03-8.15,3.12-12.22.11-.4.71-.96,1.09-.96,3.71-.07,7.43-.04,11.49-.04Z"/>
        <path class="cls-33" d="M253.41,241.9c-3.84,0-7.5.04-11.16-.06-.42-.01-1.05-.74-1.19-1.25-1.07-3.91-2.05-7.84-3.03-11.69,4.14-.2,13.31,7.24,15.39,13Z"/>
      </g>
    </g>
  </g>
  <g id="TEXT_ICON">
    <g>
      <polygon class="cls-33" points="266.13 441.94 194.43 441.94 194.43 473.87 223.33 473.87 229.5 486.08 235.67 473.87 266.13 473.87 266.13 441.94"/>
      <g>
        <circle class="cls-22" cx="215.94" cy="458.25" r="3.46"/>
        <circle class="cls-22" cx="230.28" cy="458.25" r="3.46"/>
        <circle class="cls-22" cx="244.62" cy="458.25" r="3.46"/>
      </g>
    </g>
  </g>
  <g id="CAIXA_LINK_URL">
    <rect class="cls-22" x="303.03" y="217.92" width="714.62" height="61.43" rx="30.71" ry="30.71"/>
  </g>
  <g id="CAIXA_TEXTO">
    <rect class="cls-22" x="303.03" y="441.94" width="714.62" height="474.3"/>
  </g>
  <g id="GENERATE_1">
    <g>
      <rect class="cls-31" x="303.03" y="307.88" width="292.11" height="41.33" rx="20.67" ry="20.67"/>
      <text class="cls-23" transform="translate(392.84 338.71)"><tspan x="0" y="0">GENERATE</tspan></text>
    </g>
  </g>
  <g id="GENERATE_2">
    <g>
      <rect class="cls-31" x="303.03" y="948.66" width="292.11" height="41.33" rx="20.67" ry="20.67"/>
      <text class="cls-23" transform="translate(392.84 979.49)"><tspan x="0" y="0">GENERATE</tspan></text>
    </g>
  </g>
  <g id="PASTE_URL">
    <text class="cls-27" transform="translate(339.03 427.54)"><tspan class="cls-29" x="0" y="0">Paste You´re </tspan><tspan class="cls-34" x="167.58" y="0">URL</tspan><tspan class="cls-29" x="206.25" y="0" xml:space="preserve"> Here</tspan></text>
  </g>
  <g id="PASTE_URL_2">
    <text class="cls-27" transform="translate(339.03 196.07)"><tspan class="cls-29" x="0" y="0">Paste You´re </tspan><tspan class="cls-34" x="167.58" y="0">URL</tspan><tspan class="cls-29" x="206.25" y="0" xml:space="preserve"> Here</tspan></text>
  </g>
  <g id="LARANJA">
    <rect class="cls-33" x="1139.87" y="599.23" width="29.21" height="29.21"/>
  </g>
  <g id="VERDE">
    <rect class="cls-34" x="1182.38" y="599.23" width="29.21" height="29.21"/>
  </g>
  <g id="AZUL">
    <rect class="cls-31" x="1224.9" y="599.23" width="29.21" height="29.21"/>
  </g>
  <g id="VERMELHO">
    <rect class="cls-1" x="1266.87" y="599.23" width="29.21" height="29.21"/>
  </g>
  <g id="PRETO">
    <rect x="1308.85" y="599.23" width="29.21" height="29.21"/>
  </g>
</svg>